<svg xmlns="http://www.w3.org/2000/svg" xmlns:xlink="http://www.w3.org/1999/xlink" viewBox="0 0 51.362 51.362">
  <defs>
    <style>
      .cls-1 {
        fill: #fff;
      }

      .cls-2 {
        fill: #0077b7;
      }

      .cls-3 {
        filter: url(#linkedin_1_);
      }
    </style>
    <filter id="linkedin_1_" x="0" y="0" width="51.362" height="51.362" filterUnits="userSpaceOnUse">
      <feOffset input="SourceAlpha"/>
      <feGaussianBlur stdDeviation="3" result="blur"/>
      <feFlood flood-opacity="0.161"/>
      <feComposite operator="in" in2="blur"/>
      <feComposite in="SourceGraphic"/>
    </filter>
  </defs>
  <g id="Group_66" data-name="Group 66" transform="translate(-1095 -3569.984)">
    <rect id="Rectangle_482" data-name="Rectangle 482" class="cls-1" width="31" height="28" transform="translate(1105 3582)"/>
    <g class="cls-3" transform="matrix(1, 0, 0, 1, 1095, 3569.98)">
      <path id="linkedin_1_2" data-name="linkedin (1)" class="cls-2" d="M30.344,0H3.018A3.018,3.018,0,0,0,0,3.018V30.344a3.018,3.018,0,0,0,3.018,3.018H30.344a3.018,3.018,0,0,0,3.018-3.018V3.018A3.018,3.018,0,0,0,30.344,0ZM10.324,28.807a.878.878,0,0,1-.878.878H5.707a.878.878,0,0,1-.878-.878V13.136a.878.878,0,0,1,.878-.878H9.445a.878.878,0,0,1,.878.878ZM7.576,10.78a3.552,3.552,0,1,1,3.552-3.552A3.552,3.552,0,0,1,7.576,10.78Zm22.285,18.1a.808.808,0,0,1-.808.808H25.042a.808.808,0,0,1-.808-.808V21.527c0-1.1.322-4.805-2.866-4.805-2.472,0-2.974,2.539-3.075,3.678v8.478a.808.808,0,0,1-.808.808h-3.88a.808.808,0,0,1-.808-.808V13.065a.808.808,0,0,1,.808-.808h3.88a.808.808,0,0,1,.808.808v1.367c.917-1.376,2.279-2.438,5.18-2.438,6.424,0,6.387,6,6.387,9.3v7.585Z" transform="translate(9 9)"/>
    </g>
  </g>
</svg>
