<svg xmlns="http://www.w3.org/2000/svg" viewBox="0 0 40.201 26.794">
  <defs>
    <style>
      .cls-1 {
        fill: #003977;
      }
    </style>
  </defs>
  <path id="ic_menu_24px" class="cls-1" d="M5,32.794H41.19a2.524,2.524,0,0,0,2-2.383,2.135,2.135,0,0,0-2-2.083H5A2.127,2.127,0,0,0,3,30.4,2.5,2.5,0,0,0,5,32.794ZM5,21.63H41.19a2.372,2.372,0,0,0,2-2.233,2.365,2.365,0,0,0-2-2.233H5s-2.008.495-2,2.233S5,21.63,5,21.63ZM5,6s-2.018.365-2,2.235a2.412,2.412,0,0,0,2,2.23H41.19A2.245,2.245,0,0,0,41.19,6Z" transform="translate(-2.999 -6)"/>
</svg>
