<svg id="Group-29-Copy" xmlns="http://www.w3.org/2000/svg" viewBox="0 0 68.018 52.621">
  <defs>
    <style>
      .cls-1 {
        fill: #f27382;
      }

      .cls-1, .cls-2 {
        fill-rule: evenodd;
      }

      .cls-2 {
        fill: #083386;
      }
    </style>
  </defs>
  <path id="Fill-115" class="cls-1" d="M60.9,65.956l-2.952-2.668,3.678-1.24Z" transform="translate(-34.949 -37.476)"/>
  <path id="Fill-117" class="cls-1" d="M53.957,50.533,49.331,52.1l-4.445-3.354,10.255-3.457Z" transform="translate(-27.078 -27.373)"/>
  <path id="Fill-119" class="cls-1" d="M40.282,35.287l1.4,4.1L51.94,35.93l-1.4-4.1Z" transform="translate(-24.302 -19.261)"/>
  <path id="Fill-121" class="cls-2" d="M22.215,37.935a22.173,22.173,0,0,1-16.227-7A21.823,21.823,0,0,1,.255,12.987a1.864,1.864,0,0,1,1.1-1.452L8.845,8.219a1.884,1.884,0,0,1,2.48.943,1.86,1.86,0,0,1-.951,2.462L3.866,14.5A18.121,18.121,0,0,0,8.737,28.393a18.515,18.515,0,0,0,26,.931,17.4,17.4,0,0,0,5.367-12.663A20.868,20.868,0,0,0,36.286,4.225L28.78,6.608A1.881,1.881,0,0,1,26.42,5.4a1.862,1.862,0,0,1,1.217-2.344L36.4.275a1.886,1.886,0,0,1,2.022.592,24.471,24.471,0,0,1,5.441,15.861A21.076,21.076,0,0,1,37.3,32.054a22.164,22.164,0,0,1-15.084,5.881" transform="translate(-0.051 -0.186)"/>
  <path id="Fill-123" class="cls-2" d="M78.469,103.729a7.265,7.265,0,0,1-1.659-.192c-3.343-.782-6.2-3.9-8.49-9.261a43.833,43.833,0,0,1-2.368-7.368,1.877,1.877,0,0,1,3.675-.763A40.741,40.741,0,0,0,71.8,92.871c1.742,4.061,3.83,6.559,5.874,7.037,1.489.348,4.038-.208,7.718-4.831a1.888,1.888,0,0,1,2.638-.307,1.855,1.855,0,0,1,.309,2.619c-3.355,4.215-6.668,6.341-9.869,6.341" transform="translate(-39.751 -51.108)"/>
  <path id="Fill-125" class="cls-2" d="M64.851,8.848a3.194,3.194,0,0,1-.9-6.265l4.508-1.3a3.2,3.2,0,1,1,1.8,6.137l-4.507,1.3a3.253,3.253,0,0,1-.9.128" transform="translate(-37.172 -0.769)"/>
  <path id="Fill-127" class="cls-2" d="M19.829,21.363a3.194,3.194,0,0,1-.9-6.265l4.508-1.3a3.2,3.2,0,1,1,1.8,6.136l-4.508,1.3a3.246,3.246,0,0,1-.9.128" transform="translate(-10.034 -8.313)"/>
  <path id="Fill-129" class="cls-2" d="M121.531,62.2a4.05,4.05,0,0,0-5.634.821,3.952,3.952,0,0,0-.76,2.911l.006.052,1.608,10.691a.419.419,0,0,0,.476.356l10.854-1.6a3.328,3.328,0,0,0,1.8-.778l.08-.069a3.985,3.985,0,0,0-.14-6.308c-2.154-1.591-3.351-1.05-3.745-.872l-3.051,1.38.428-3.3c.054-.421.221-1.7-1.921-3.283m-6.84,17.723a4.1,4.1,0,0,1-1.63-2.7l-1.608-10.685c-.008-.055-.013-.1-.018-.14a7.618,7.618,0,0,1,1.469-5.584,7.8,7.8,0,0,1,10.854-1.581,8.1,8.1,0,0,1,3.213,4.242,8.16,8.16,0,0,1,5.076,1.834,7.674,7.674,0,0,1,1.593,10.777,7.787,7.787,0,0,1-1.28,1.339,7,7,0,0,1-3.733,1.674l-10.854,1.6a4.164,4.164,0,0,1-3.082-.772" transform="translate(-67.153 -34.857)"/>
</svg>
