<svg xmlns="http://www.w3.org/2000/svg" viewBox="0 0 260 47.533">
  <defs>
    <style>
      .cls-1 {
        fill: #083386;
      }

      .cls-1, .cls-2, .cls-3 {
        fill-rule: evenodd;
      }

      .cls-2 {
        fill: #f47280;
      }

      .cls-3 {
        fill: #f27382;
      }
    </style>
  </defs>
  <g id="logo_b" transform="translate(-78.406 -0.186)">
    <g id="logo" transform="translate(78.406 0.186)">
      <g id="Group_62" data-name="Group 62" transform="translate(71.588 11.345)">
        <path id="DoctorFare" class="cls-1" d="M.734,161.587h10c7.317,0,12.613,5.122,12.613,12.195,0,7.038-5.331,12.195-12.717,12.195H.734Zm4.111,3.693v17h5.993a8.176,8.176,0,0,0,8.362-8.467,8.315,8.315,0,0,0-8.536-8.536ZM35.437,167.3c5.714,0,9.651,3.8,9.651,9.407,0,5.575-3.937,9.407-9.651,9.407-5.749,0-9.686-3.833-9.686-9.407C25.75,171.1,29.688,167.3,35.437,167.3Zm0,3.449c-3.345,0-5.679,2.439-5.679,5.993,0,3.589,2.334,6.028,5.679,6.028,3.31,0,5.644-2.439,5.644-6.028C41.081,173.189,38.746,170.751,35.437,170.751ZM56.864,167.3c-5.505,0-9.338,3.833-9.338,9.442,0,5.575,3.833,9.372,9.338,9.372,3.519,0,6.2-1.254,7.874-3.449l-2.23-2.23a6.91,6.91,0,0,1-5.47,2.23c-3.205,0-5.505-2.4-5.505-5.923s2.3-5.923,5.505-5.923a7,7,0,0,1,5.3,2.091l2.2-2.578C62.822,168.381,60.209,167.3,56.864,167.3ZM78.4,181.726a6.468,6.468,0,0,1-2.787.8c-1.254,0-1.986-.592-1.986-2.509v-8.885h5.47v-3h-5.47V163.05H69.651v5.087H67.038v3h2.613v9.616c0,3.8,2.4,5.4,5.191,5.4a8.9,8.9,0,0,0,4.564-1.359ZM91.044,167.3c5.714,0,9.651,3.8,9.651,9.407,0,5.575-3.937,9.407-9.651,9.407-5.749,0-9.686-3.833-9.686-9.407C81.358,171.1,85.3,167.3,91.044,167.3Zm0,3.449c-3.345,0-5.679,2.439-5.679,5.993,0,3.589,2.334,6.028,5.679,6.028,3.31,0,5.644-2.439,5.644-6.028C96.689,173.189,94.354,170.751,91.044,170.751Zm17.839-3.31h-4.007v18.536h4.007V176.29c.314-3.171,2.683-5.366,6.411-5.157V167.3a6.739,6.739,0,0,0-6.411,3.833Z" transform="translate(-0.734 -161.587)"/>
        <path id="Path" class="cls-2" d="M225.286,165.28l.035-3.693H208.946v24.389h4.111v-10h11.08v-3.658h-11.08V165.28Z" transform="translate(-90.831 -161.587)"/>
        <path id="Combined-Shape" class="cls-2" d="M253.777,190.335V188.07c-1.324,1.638-3.449,2.439-6.132,2.439-4.007,0-6.515-2.474-6.515-5.749,0-3.38,2.543-5.54,7-5.575h5.61v-.557c0-2.334-1.5-3.728-4.425-3.728a9.771,9.771,0,0,0-5.47,1.881l-1.638-2.787a13.576,13.576,0,0,1,7.979-2.334c4.773,0,7.456,2.439,7.491,6.515l.035,12.16Zm-5.3-3c2.857,0,5.052-1.5,5.261-3.519v-1.707h-5.017c-2.613,0-3.833.7-3.833,2.474C244.892,186.259,246.251,187.339,248.481,187.339Z" transform="translate(-104.758 -165.946)"/>
        <path id="Path-2" data-name="Path" class="cls-2" d="M283.83,171.8h-4.007v18.536h4.007v-9.686c.314-3.171,2.683-5.366,6.411-5.157V171.66a6.739,6.739,0,0,0-6.411,3.833Z" transform="translate(-121.502 -165.946)"/>
        <path id="Combined-Shape-2" data-name="Combined-Shape" class="cls-2" d="M310.324,171.66c6.515,0,9.163,4.251,8.676,10.94H304.993a5.643,5.643,0,0,0,5.749,4.634,7.207,7.207,0,0,0,5.226-2.16l2.125,2.265a10.087,10.087,0,0,1-7.665,3.136c-5.714,0-9.477-3.8-9.477-9.372A9,9,0,0,1,310.324,171.66Zm-5.4,8.014h10.592a4.76,4.76,0,0,0-5.157-4.808A5.274,5.274,0,0,0,304.924,179.674Z" transform="translate(-130.644 -165.946)"/>
      </g>
      <g id="Group-29-Copy" transform="translate(0)">
        <path id="Fill-115" class="cls-3" d="M60.612,65.578l-2.667-2.41,3.322-1.121Z" transform="translate(-37.172 -39.851)"/>
        <path id="Fill-117" class="cls-3" d="M53.08,50.026,48.9,51.439l-4.015-3.03,9.263-3.123Z" transform="translate(-28.8 -29.104)"/>
        <path id="Fill-119" class="cls-3" d="M40.282,34.953l1.267,3.7,9.263-3.123-1.267-3.7Z" transform="translate(-25.847 -20.476)"/>
        <path id="Fill-121" class="cls-1" d="M20.073,34.285A20.029,20.029,0,0,1,5.414,27.96,19.713,19.713,0,0,1,.235,11.75a1.684,1.684,0,0,1,.991-1.312l6.77-3a1.7,1.7,0,0,1,2.24.852,1.68,1.68,0,0,1-.859,2.224L3.5,13.12A16.369,16.369,0,0,0,7.9,25.666a16.725,16.725,0,0,0,23.49.841,15.72,15.72,0,0,0,4.848-11.439A18.85,18.85,0,0,0,32.783,3.835L26,5.987A1.7,1.7,0,0,1,23.871,4.9a1.682,1.682,0,0,1,1.1-2.117L32.885.266A1.7,1.7,0,0,1,34.712.8a22.105,22.105,0,0,1,4.915,14.328A19.039,19.039,0,0,1,33.7,28.973a20.022,20.022,0,0,1-13.625,5.313" transform="translate(-0.051 -0.186)"/>
        <path id="Fill-123" class="cls-1" d="M77.255,101.885a6.562,6.562,0,0,1-1.5-.174c-3.02-.707-5.6-3.522-7.669-8.366a39.6,39.6,0,0,1-2.139-6.655A1.7,1.7,0,0,1,69.268,86a36.8,36.8,0,0,0,1.962,6.076C72.8,95.746,74.689,98,76.536,98.434c1.345.314,3.648-.188,6.971-4.364a1.705,1.705,0,0,1,2.383-.277,1.676,1.676,0,0,1,.279,2.366c-3.031,3.808-6.023,5.728-8.915,5.728" transform="translate(-42.28 -54.352)"/>
        <path id="Fill-125" class="cls-1" d="M64.54,8.1a2.885,2.885,0,0,1-.811-5.659L67.8,1.269a2.888,2.888,0,1,1,1.624,5.544L65.354,7.989a2.938,2.938,0,0,1-.814.115" transform="translate(-39.537 -0.806)"/>
        <path id="Fill-127" class="cls-1" d="M19.518,20.619a2.885,2.885,0,0,1-.811-5.659l4.072-1.176A2.888,2.888,0,1,1,24.4,19.327L20.332,20.5a2.932,2.932,0,0,1-.814.115" transform="translate(-10.67 -8.831)"/>
        <path id="Fill-129" class="cls-1" d="M120.548,61.761a3.658,3.658,0,0,0-5.089.742,3.57,3.57,0,0,0-.686,2.63l.005.047,1.453,9.658a.379.379,0,0,0,.43.322l9.805-1.447a3.007,3.007,0,0,0,1.624-.7l.072-.062a3.6,3.6,0,0,0-.126-5.7c-1.946-1.438-3.027-.949-3.383-.788L121.9,67.709l.387-2.982c.049-.38.2-1.537-1.735-2.965m-6.179,16.01a3.705,3.705,0,0,1-1.472-2.443l-1.452-9.652c-.007-.05-.012-.089-.016-.126a6.882,6.882,0,0,1,1.327-5.045,7.048,7.048,0,0,1,9.805-1.428,7.316,7.316,0,0,1,2.9,3.832,7.371,7.371,0,0,1,4.586,1.657,6.932,6.932,0,0,1,1.439,9.735,7.033,7.033,0,0,1-1.157,1.21,6.324,6.324,0,0,1-3.372,1.512l-9.8,1.447a3.762,3.762,0,0,1-2.784-.7" transform="translate(-71.428 -37.066)"/>
      </g>
    </g>
  </g>
</svg>
