<svg xmlns="http://www.w3.org/2000/svg" viewBox="0 0 109.546 92.612">
  <defs>
    <style>
      .cls-1 {
        fill: none;
      }

      .cls-2 {
        fill: #1b2327;
      }

      .cls-3 {
        fill: #f7f1e6;
      }

      .cls-4 {
        fill: #e74424;
      }
    </style>
  </defs>
  <g id="medical-kit" transform="translate(0 -29.631)">
    <g id="Layer_2_36_" transform="translate(0 29.631)">
      <g id="Group_36" data-name="Group 36" transform="translate(0 0)">
        <rect id="Rectangle_470" data-name="Rectangle 470" class="cls-1" width="31.851" height="10.657" transform="translate(39.057 9.576)"/>
        <path id="Path_2" data-name="Path 2" class="cls-2" d="M112.747,39.207H144.6V49.864h9.576V34.419a4.788,4.788,0,0,0-4.788-4.788H107.959a4.788,4.788,0,0,0-4.788,4.788V49.864h9.576V39.207Z" transform="translate(-73.69 -29.631)"/>
        <path id="Path_3" data-name="Path 3" class="cls-3" d="M96.5,100.44H13.042A13.042,13.042,0,0,0,0,113.482v46.3a13.042,13.042,0,0,0,13.042,13.042H96.5a13.042,13.042,0,0,0,13.042-13.042v-46.3A13.042,13.042,0,0,0,96.5,100.44ZM55.25,159.052a20.809,20.809,0,1,1,20.809-20.809A20.81,20.81,0,0,1,55.25,159.052Z" transform="translate(0 -80.207)"/>
        <path id="Path_4" data-name="Path 4" class="cls-4" d="M141.338,159.911a20.809,20.809,0,1,0,20.809,20.809A20.81,20.81,0,0,0,141.338,159.911Zm12.086,21.84a3.081,3.081,0,0,1-3.081,3.081H145.45v4.892a3.082,3.082,0,0,1-3.082,3.082h-2.061a3.082,3.082,0,0,1-3.082-3.082v-4.892h-4.893a3.082,3.082,0,0,1-3.081-3.081V179.69a3.082,3.082,0,0,1,3.081-3.082h4.893v-4.892a3.081,3.081,0,0,1,3.082-3.081h2.061a3.081,3.081,0,0,1,3.082,3.081v4.892h4.892a3.081,3.081,0,0,1,3.081,3.082Z" transform="translate(-86.088 -122.684)"/>
        <path id="Path_5" data-name="Path 5" class="cls-3" d="M172.147,198.414h-4.892v-4.892a3.081,3.081,0,0,0-3.082-3.081h-2.061a3.082,3.082,0,0,0-3.082,3.081v4.892h-4.893a3.082,3.082,0,0,0-3.081,3.082v2.061a3.082,3.082,0,0,0,3.081,3.081h4.893v4.892a3.082,3.082,0,0,0,3.082,3.082h2.061a3.082,3.082,0,0,0,3.082-3.082v-4.892h4.892a3.081,3.081,0,0,0,3.081-3.081V201.5A3.082,3.082,0,0,0,172.147,198.414Z" transform="translate(-107.892 -144.49)"/>
      </g>
    </g>
  </g>
</svg>
