<svg height="449pt" viewBox="-42 0 449 449.609" width="449pt" xmlns="http://www.w3.org/2000/svg" xmlns:xlink="http://www.w3.org/1999/xlink"><linearGradient id="a"><stop offset="0" stop-color="#00efd1"/><stop offset="1" stop-color="#00acea"/></linearGradient><linearGradient id="b" gradientUnits="userSpaceOnUse" x1="158.1155" x2="158.1155" xlink:href="#a" y1="-24.681" y2="468.282"/><linearGradient id="c" gradientUnits="userSpaceOnUse" x1="183.1155" x2="183.1155" xlink:href="#a" y1="-24.681" y2="468.282"/><path d="m158.117188 139.984375c22.617187-.019531 40.953124-18.339844 41-40.957031v-13.183594c0-22.644531-18.359376-41-41-41-22.644532 0-41 18.355469-41 41v13.183594c.042968 22.617187 18.378906 40.9375 41 40.957031zm-25-54.140625c-.035157-13.820312 11.078124-25.082031 24.898437-25.234375h.070313c13.84375.140625 25.003906 11.386719 25.03125 25.234375v13.183594c0 13.808594-11.195313 25-25 25-13.808594 0-25-11.191406-25-25zm0 0" fill="url(#b)"/><path d="m273.882812 262.261719c26.121094-28.808594 40.574219-66.3125 40.542969-105.199219 0-86.601562-70.457031-157.0625-157.058593-157.0625-86.605469 0-157.0625 70.453125-157.0625 157.058594 0 69.363281 45.199218 128.363281 107.699218 149.105468l3.800782 116.351563c.445312 11.019531 7.355468 20.738281 17.621093 24.777344 10.265625 4.035156 21.945313 1.628906 29.777344-6.132813 5.175781 5.339844 12.277344 8.382813 19.710937 8.449219 14.980469-.042969 27.230469-11.957031 27.691407-26.929687l3.847656-117.707032c19.246094-6.960937 36.949219-17.609375 52.121094-31.351562l89.699219 89.679687c3.136718 3.070313 8.167968 3.042969 11.269531-.066406 3.101562-3.109375 3.121093-8.136719.042969-11.269531zm-257.734374-105.203125c0-77.78125 63.359374-141.0625 141.140624-141.0625s141.253907 63.28125 141.253907 141.0625c-.074219 41.261718-18.121094 80.441406-49.425781 107.320312v-79.882812c1.957031-23.058594-14.941407-43.429688-37.964844-45.765625-1.410156-.144531-3-.121094-4.414063-.121094h-17.355469c-2.023437-.035156-3.984374.707031-5.476562 2.070313l-24.691406 23.128906-23.71875-23c-1.5-1.433594-3.503906-2.226563-5.582032-2.199219h-18.417968c-23.308594-.027344-42.261719 18.789063-42.398438 42.101563 0 1.273437.019532 2.515624.019532 3.785156v82.773437c-33.402344-26.847656-52.871094-67.359375-52.96875-110.210937zm142.96875 125.621094c-4.421876 0-8 3.582031-8 8v7.296874c-9.292969-.488281-18.519532-1.867187-27.546876-4.113281l-.84375-27.253906h72.953126l-.898438 26.289063c-9.027344 2.582031-18.300781 4.214843-27.664062 4.871093v-7.089843c0-4.417969-3.582032-8-8-8zm-5.582032-102.027344c.050782.046875.105469.039062.15625.089844.113282.097656.222656.175781.339844.269531.089844.078125.183594.140625.277344.210937.121094.089844.242187.171875.363281.253906.101563.0625.203125.125.300781.183594.125.078125.25.148438.375.214844.109375.058594.214844.109375.320313.160156.128906.0625.253906.117188.386719.171875.109374.046875.222656.089844.335937.132813.128906.046875.261719.089844.390625.128906.132812.039062.230469.066406.351562.097656.117188.035156.261719.066406.398438.09375.117188.023438.234375.042969.355469.0625.136719.019532.269531.039063.40625.054688.117187.011718.234375.019531.351562.027344.140625.007812.28125.011718.417969.011718.117188 0 .230469 0 .34375-.003906.144531 0 .285156-.011719.429688-.027344.109374-.007812.222656-.023437.332031-.035156.144531-.019531.285156-.042969.429687-.070312.109375-.019532.21875-.042969.328125-.066407.140625-.035156.28125-.070312.417969-.109375.109375-.03125.21875-.066406.328125-.101562.136719-.046875.269531-.09375.398437-.144532.109376-.046874.21875-.09375.328126-.140624.128906-.058594.253906-.117188.378906-.183594.109375-.054688.21875-.117188.328125-.179688.105469-.0625.234375-.140625.351562-.214844.117188-.074218.214844-.144531.324219-.222656.105469-.074218.214844-.160156.324219-.246094.105469-.085937.203125-.167968.304687-.257812.058594-.050781.121094 0 .179688-.054688l27.957031-26.148437h14.191406c.878907 0 1.765625-.050781 2.640625.039063 14.402344 1.476562 24.929688 14.265624 23.621094 28.683593.023438.261719.0625.523438.117188.78125v83.234375c0 5.800782-4.703126 10.5-10.5 10.5-5.800782 0-10.5-4.699218-10.5-10.5v-22.367187l.097656-3.148438c.019531-.535156-.097656-1.054687-.097656-1.5625v-22.660156c0-4.417969-3.582032-8-8-8-4.421876 0-8 3.582031-8 8v27.121094l.085937 5.878906h-74l-.148437-9.464844c-.011719-.339843.0625-.511719.0625-.84375v-22.691406c0-4.417969-3.582032-8-8-8-4.421876 0-8 3.582031-8 8v49.242187c.039062 5.738282-4.492188 10.472657-10.230469 10.683594-.007813 0-.339844 0-.351563 0-5.664062.015625-10.296875-4.507812-10.417968-10.171875v-83.25c0-.269531.140624-.539062.113281-.804687-.0625-.882813-.082031-1.765625-.054688-2.648438.023438-6.949218 2.816407-13.601562 7.753907-18.488281s11.621093-7.609375 18.570312-7.5625h15.167969zm-14.085937 252.570312c-6.296875.019532-11.46875-4.964844-11.675781-11.257812l-3.675782-111.394532c8.894532 1.910157 17.929688 3.050782 27.019532 3.414063v107.523437c.015624 6.457032-5.210938 11.703126-11.667969 11.714844zm51.167969-11.285156c-.238282 6.402344-5.558594 11.433594-11.960938 11.316406-6.40625-.113281-11.539062-5.339844-11.539062-11.746094v-107.707031c9.136718-.585937 18.210937-1.949219 27.121093-4.074219zm0 0" fill="url(#c)"/></svg>